<?xml version="1.0" standalone="no"?>
<!DOCTYPE svg PUBLIC "-//W3C//DTD SVG 20010904//EN"
 "http://www.w3.org/TR/2001/REC-SVG-20010904/DTD/svg10.dtd">
<svg version="1.0" xmlns="http://www.w3.org/2000/svg"
 width="700.000000pt" height="700.000000pt" viewBox="0 0 700.000000 700.000000"
 preserveAspectRatio="xMidYMid meet">
<metadata>
Created by potrace 1.14, written by Peter Selinger 2001-2017
</metadata>
<g transform="translate(0.000000,700.000000) scale(0.100000,-0.100000)"
fill="#000000" stroke="none">
<path d="M4249 4507 c-93 -63 -36 -210 75 -192 78 12 119 105 73 165 -40 52
-95 63 -148 27z"/>
<path d="M608 4157 c-136 -38 -233 -172 -223 -306 10 -133 89 -222 291 -326
112 -58 149 -87 162 -124 21 -61 -48 -117 -130 -104 -46 7 -138 56 -171 91
l-29 30 -36 -41 c-21 -22 -56 -61 -79 -86 -24 -25 -43 -49 -43 -54 0 -19 105
-107 162 -134 175 -85 406 -49 511 79 49 60 69 112 73 191 8 166 -73 261 -326
386 -47 23 -92 48 -101 54 -26 19 -37 50 -28 74 25 66 145 56 234 -21 17 -14
32 -26 35 -26 3 0 41 36 85 80 67 68 78 83 69 98 -22 34 -113 100 -171 122
-71 28 -215 36 -285 17z"/>
<path d="M1590 4125 c-95 -16 -175 -59 -247 -131 -35 -34 -64 -59 -66 -56 -1
4 -2 44 -2 90 l1 82 -63 0 -63 0 0 -160 c0 -88 -1 -288 -1 -445 0 -157 1 -399
1 -538 l0 -253 58 2 c31 1 60 2 65 3 4 1 7 122 7 269 l0 269 52 -49 c196 -183
485 -194 684 -26 234 199 263 549 62 772 -128 143 -302 204 -488 171z m157
-126 c353 -70 447 -543 149 -748 -75 -52 -159 -74 -250 -67 -219 16 -375 184
-374 404 0 130 36 222 119 303 97 95 225 134 356 108z"/>
<path d="M2797 4134 c-1 -2 -25 -4 -52 -5 -156 -7 -339 -130 -415 -280 -42
-81 -52 -125 -55 -231 -3 -85 1 -120 17 -173 114 -381 563 -511 850 -246 32
29 58 47 59 40 0 -8 2 -45 2 -84 l2 -69 53 1 c28 0 57 1 62 2 7 1 10 178 10
510 l0 508 -64 -1 -64 -1 0 -75 c0 -41 0 -80 -1 -87 -1 -6 -27 15 -59 47 -55
55 -130 101 -197 122 -31 10 -143 26 -148 22z m151 -152 c194 -74 302 -293
247 -502 -64 -243 -328 -365 -561 -259 -88 39 -181 149 -213 251 -19 57 -20
176 -4 233 43 145 153 253 292 290 64 17 177 10 239 -13z"/>
<path d="M5195 4120 c-214 -38 -400 -128 -570 -275 -68 -59 -175 -188 -217
-262 -17 -29 -31 -53 -31 -53 -1 0 -2 126 -2 281 0 154 -2 285 -6 290 -3 6
-32 9 -65 7 l-59 -3 -1 -595 c-1 -327 -3 -597 -3 -600 -1 -3 -13 -5 -28 -4
-72 3 -186 -60 -234 -130 -13 -19 -26 -33 -29 -31 -3 2 -5 33 -5 69 l1 66 -68
0 -68 0 2 -512 3 -512 45 0 c95 2 85 -29 86 262 0 141 3 291 6 332 12 143 59
240 146 299 62 42 172 30 172 -18 0 -30 51 -175 89 -252 35 -71 102 -180 126
-205 5 -6 30 -34 54 -63 87 -103 281 -240 411 -291 167 -66 272 -85 460 -85
287 2 558 108 763 298 55 52 60 54 126 60 118 10 206 68 265 176 51 95 45 224
-15 324 -16 26 -27 52 -24 57 22 36 26 338 6 445 -68 353 -298 660 -609 815
-135 67 -179 82 -337 115 -75 16 -291 13 -390 -5z m312 -124 c90 -8 225 -46
323 -92 354 -166 584 -528 580 -913 -1 -58 -3 -117 -5 -131 -2 -14 -4 -28 -4
-33 -1 -4 -11 -5 -24 -2 -13 4 -38 7 -55 9 -17 1 -34 5 -37 8 -4 3 -8 35 -11
70 -10 152 -54 250 -158 353 -108 107 -196 143 -345 143 -172 0 -329 -85 -426
-230 -25 -39 -63 -127 -68 -159 -3 -17 -16 -26 -59 -39 -75 -23 -118 -51 -173
-112 -79 -88 -111 -183 -102 -306 10 -157 112 -292 257 -345 67 -25 76 -25
469 -26 l364 -1 -44 -32 c-102 -74 -285 -153 -399 -172 -19 -3 -46 -8 -60 -11
-45 -10 -237 -7 -296 4 -224 43 -408 138 -558 287 -186 186 -301 462 -299 719
2 335 171 654 443 841 93 63 256 135 340 151 14 2 41 8 60 12 19 4 62 9 95 10
33 1 61 4 63 5 1 2 15 2 30 1 15 -2 59 -6 99 -9z"/>
<path d="M3431 4051 l2 -60 254 1 c139 0 256 -2 259 -5 3 -3 -14 -36 -39 -74
-24 -37 -140 -219 -257 -403 -117 -184 -225 -354 -241 -377 -16 -24 -25 -43
-21 -44 29 -4 765 -3 771 1 10 6 8 96 -2 106 -4 4 -125 8 -270 8 -144 1 -264
4 -267 7 -3 3 119 201 271 440 152 239 279 440 283 447 6 9 -71 12 -369 12
l-376 0 2 -59z"/>
<path d="M1844 2808 l1 -113 190 -1 c105 -1 195 -2 202 -3 6 -1 -26 -65 -71
-143 -46 -79 -94 -163 -108 -188 -14 -25 -84 -147 -156 -272 -74 -129 -125
-228 -118 -230 9 -3 762 -2 823 1 21 1 22 5 22 111 -1 77 -4 110 -12 111 -7 0
-108 0 -225 0 l-213 0 32 57 c18 31 41 73 52 92 10 19 36 64 57 100 20 36 50
87 65 115 15 27 70 123 121 212 52 90 94 165 94 168 0 3 11 23 25 43 14 20 25
40 25 44 0 4 -182 7 -404 8 l-403 0 1 -112z"/>
<path d="M3050 2889 c-161 -31 -293 -136 -363 -289 -40 -86 -49 -126 -52 -218
-8 -244 139 -466 350 -527 80 -24 94 -26 180 -26 191 1 338 78 441 232 44 67
45 71 28 84 -36 27 -97 50 -101 39 -10 -29 -97 -134 -130 -157 -77 -53 -129
-68 -243 -73 -72 -3 -94 1 -144 21 -72 29 -119 66 -168 130 -42 55 -81 166
-76 215 l3 34 455 0 455 1 -3 50 c-14 217 -159 408 -359 471 -57 18 -210 25
-273 13z m219 -128 c141 -44 224 -128 266 -268 l6 -23 -381 0 -381 0 7 23 c31
98 111 204 182 241 89 46 206 57 301 27z"/>
</g>
</svg>
