<?xml version="1.0" encoding="utf-8"?>
<!-- Generator: Adobe Illustrator 27.0.0, SVG Export Plug-In . SVG Version: 6.00 Build 0)  -->
<svg version="1.1" id="Livello_1" xmlns="http://www.w3.org/2000/svg" xmlns:xlink="http://www.w3.org/1999/xlink" x="0px" y="0px"
	 viewBox="0 0 283.5 283.5" style="enable-background:new 0 0 283.5 283.5;" xml:space="preserve">
<style type="text/css">
	.st0{fill:#ffffff;}
	.st1{fill:none;stroke:#ffffff;stroke-width:5.5;stroke-miterlimit:10;}
</style>
<g>
	<g>
		<path class="st0" d="M43.6,121.5l-6.7,6.7c-2.7-2.7-5.2-4-7.4-4c-1.2,0-2.2,0.3-2.8,0.8c-0.7,0.5-1,1.2-1,1.9
			c0,0.6,0.2,1.1,0.7,1.6c0.4,0.5,1.5,1.2,3.2,2l4,2c4.2,2.1,7,4.2,8.6,6.3c1.6,2.1,2.3,4.6,2.3,7.5c0,3.8-1.4,7-4.2,9.6
			c-2.8,2.6-6.6,3.8-11.3,3.8c-6.3,0-11.3-2.5-15-7.4l6.6-7.2c1.3,1.5,2.7,2.7,4.4,3.6c1.7,0.9,3.2,1.4,4.5,1.4c1.4,0,2.6-0.3,3.4-1
			c0.9-0.7,1.3-1.5,1.3-2.4c0-1.7-1.6-3.3-4.7-4.9l-3.6-1.8c-7-3.5-10.4-7.9-10.4-13.2c0-3.4,1.3-6.3,3.9-8.7
			c2.6-2.4,6-3.6,10.1-3.6c2.8,0,5.4,0.6,7.9,1.8C39.8,117.4,41.9,119.2,43.6,121.5z"/>
		<path class="st0" d="M46.4,117.1h5.3v7.6c2.1-2.9,4.5-5.1,7.3-6.5c2.7-1.4,5.8-2.2,9.2-2.2c5.9,0,10.9,2.1,15.1,6.3
			c4.2,4.2,6.3,9.3,6.3,15.3c0,6.1-2.1,11.2-6.2,15.5c-4.1,4.2-9.1,6.4-15,6.4c-3.3,0-6.3-0.7-9.1-2.1c-2.8-1.4-5.3-3.4-7.5-6.1
			v22.2h-5.3V117.1z M67.7,121.2c-4.6,0-8.5,1.6-11.6,4.8c-3.1,3.2-4.7,7.2-4.7,12c0,3.1,0.7,6,2.1,8.5c1.4,2.5,3.4,4.5,6,6
			s5.4,2.2,8.3,2.2c2.9,0,5.5-0.7,8.1-2.2s4.5-3.6,6-6.2c1.5-2.7,2.2-5.4,2.2-8.4c0-2.9-0.7-5.7-2.2-8.4c-1.5-2.6-3.5-4.7-6-6.1
			C73.3,121.9,70.6,121.2,67.7,121.2z"/>
		<path class="st0" d="M134.9,117.1v41.4h-5.2v-7.1c-2.2,2.7-4.7,4.8-7.5,6.1c-2.8,1.4-5.8,2.1-9.1,2.1c-5.9,0-10.9-2.1-15-6.4
			c-4.1-4.2-6.2-9.4-6.2-15.5c0-6,2.1-11,6.3-15.3c4.2-4.2,9.2-6.3,15.1-6.3c3.4,0,6.5,0.7,9.2,2.2c2.7,1.4,5.2,3.6,7.2,6.5v-7.6
			H134.9z M113.7,121.2c-3,0-5.7,0.7-8.2,2.2c-2.5,1.5-4.5,3.5-6,6.1c-1.5,2.6-2.2,5.4-2.2,8.4c0,2.9,0.7,5.7,2.2,8.4
			c1.5,2.7,3.5,4.7,6,6.2s5.2,2.2,8.1,2.2c2.9,0,5.7-0.7,8.3-2.2c2.6-1.5,4.6-3.5,6-6c1.4-2.5,2.1-5.3,2.1-8.5c0-4.8-1.6-8.8-4.7-12
			C122.1,122.8,118.3,121.2,113.7,121.2z"/>
		<path class="st0" d="M139,117.1h30.4L146,153.8h22.7v4.7h-31.8l23.4-36.7H139V117.1z"/>
		<path class="st0" d="M174.5,100.1c1.2,0,2.2,0.4,3.1,1.3c0.9,0.9,1.3,1.9,1.3,3.1c0,1.2-0.4,2.2-1.3,3.1c-0.9,0.9-1.9,1.3-3.1,1.3
			c-1.2,0-2.2-0.4-3.1-1.3c-0.9-0.9-1.3-1.9-1.3-3.1c0-1.2,0.4-2.3,1.3-3.1S173.3,100.1,174.5,100.1z M171.9,117.1h5.3v41.4h-5.3
			V117.1z"/>
		<path class="st0" d="M74.6,165.3h32.9l-19.3,33.9h18.2v9.1H71.7l19.4-33.9H74.6V165.3z"/>
		<path class="st0" d="M143.4,194.6l4.5,2.4c-1.5,2.9-3.2,5.2-5.1,7c-1.9,1.8-4.1,3.1-6.5,4.1c-2.4,0.9-5.1,1.4-8.2,1.4
			c-6.7,0-12-2.2-15.8-6.6c-3.8-4.4-5.7-9.4-5.7-15c0-5.2,1.6-9.9,4.8-14c4.1-5.2,9.6-7.8,16.4-7.8c7.1,0,12.7,2.7,16.9,8
			c3,3.8,4.5,8.5,4.6,14.1h-37.2c0.1,4.8,1.6,8.7,4.6,11.8c3,3.1,6.6,4.6,11,4.6c2.1,0,4.2-0.4,6.1-1.1c2-0.7,3.7-1.7,5.1-2.9
			C140.3,199.2,141.8,197.3,143.4,194.6z M143.4,183.4c-0.7-2.8-1.7-5.1-3.1-6.8c-1.4-1.7-3.2-3.1-5.4-4.1c-2.2-1-4.6-1.6-7-1.6
			c-4.1,0-7.6,1.3-10.5,3.9c-2.1,1.9-3.7,4.8-4.8,8.6H143.4z"/>
		<path class="st0" d="M154.4,166.9h5.4v6c1.6-2.4,3.3-4.2,5.1-5.3c1.8-1.2,3.7-1.8,5.6-1.8c1.5,0,3,0.5,4.7,1.4l-2.8,4.5
			c-1.1-0.5-2.1-0.7-2.8-0.7c-1.8,0-3.5,0.7-5.1,2.2c-1.6,1.5-2.9,3.7-3.8,6.8c-0.7,2.4-1,7.1-1,14.3v14h-5.4V166.9z"/>
	</g>
	<g>
		<circle class="st1" cx="218.5" cy="162.6" r="44"/>
		<circle class="st0" cx="252.7" cy="182.2" r="12.6"/>
		<g>
			<path class="st0" d="M216.1,194.7c-4.5,0-8.3-1.6-11.4-4.8c-3.1-3.2-4.7-7-4.7-11.5c0-4,1.3-7.5,3.8-10.6s5.8-4.9,9.7-5.5
				c1-5,3.4-9.1,7.2-12.2s8.1-4.8,13.1-4.8c5.7,0,10.5,2.1,14.5,6.3s5.9,9.2,5.9,15.1v1.9c3.7-0.1,6.8,1.1,9.3,3.6
				c2.5,2.5,3.8,5.7,3.8,9.5c0,3.6-1.3,6.6-3.8,9.2s-5.6,3.9-9.1,3.9H216.1z M216.1,190h38.2c2.3,0,4.3-0.8,5.9-2.5s2.4-3.6,2.4-5.9
				s-0.8-4.3-2.4-5.9s-3.6-2.5-5.9-2.5h-4.8v-6.5c0-4.7-1.6-8.7-4.7-11.9c-3.1-3.2-6.9-4.9-11.4-4.9s-8.3,1.6-11.4,4.9
				s-4.7,7.2-4.7,11.9h-1.5c-3.2,0-5.8,1.1-8,3.4c-2.2,2.2-3.3,5-3.3,8.3c0,3.2,1.1,6,3.4,8.3S212.8,190,216.1,190z"/>
			<circle class="st0" cx="214.4" cy="178" r="12.6"/>
			<circle class="st0" cx="233.9" cy="166" r="17.7"/>
			<ellipse class="st0" cx="232.5" cy="186.9" rx="21.2" ry="6.9"/>
		</g>
	</g>
</g>
</svg>
